<svg class="svg-icon" style="width: 1em;height: 1em;vertical-align: middle;fill: currentColor;overflow: hidden;" viewBox="0 0 1024 1024" version="1.1" xmlns="http://www.w3.org/2000/svg"><path d="M480 384H384a128 128 0 0 1-128-128V128a128 128 0 0 1 128-128h256a128 128 0 0 1 128 128v128a128 128 0 0 1-128 128H544v128h192a128 128 0 0 1 128 128v64h32a128 128 0 0 1 128 128v64a128 128 0 0 1-128 128h-128a128 128 0 0 1-128-128v-64a128 128 0 0 1 128-128h32v-64a64 64 0 0 0-64-64h-448a64 64 0 0 0-63.552 56.512L224 640v64H256a128 128 0 0 1 128 128v64a128 128 0 0 1-128 128H128a128 128 0 0 1-128-128v-64a128 128 0 0 1 128-128h32v-64a128 128 0 0 1 128-128h192V384zM256 768H128a64 64 0 0 0-63.552 56.512L64 832v64a64 64 0 0 0 56.512 63.552L128 960h128a64 64 0 0 0 63.552-56.512L320 896v-64a64 64 0 0 0-64-64z m640 0h-128a64 64 0 0 0-63.552 56.512L704 832v64a64 64 0 0 0 56.512 63.552L768 960h128a64 64 0 0 0 63.552-56.512L960 896v-64a64 64 0 0 0-64-64zM640 64H384a64 64 0 0 0-63.552 56.512L320 128v128a64 64 0 0 0 56.512 63.552L384 320h256a64 64 0 0 0 63.552-56.512L704 256V128a64 64 0 0 0-64-64z" fill="#333333" /></svg>